<svg width="1200" height="800" xmlns="http://www.w3.org/2000/svg">
  <defs>
    <linearGradient id="grad1" x1="0%" y1="0%" x2="100%" y2="100%">
      <stop offset="0%" style="stop-color:rgb(59,130,246);stop-opacity:1" />
      <stop offset="100%" style="stop-color:rgb(147,51,234);stop-opacity:1" />
    </linearGradient>
  </defs>
  
  <!-- Background -->
  <rect width="1200" height="800" fill="#0a0e1a"/>
  
  <!-- Gradient overlay -->
  <rect width="1200" height="800" fill="url(#grad1)" opacity="0.1"/>
  
  <!-- Icon (Chef Hat / Utensils) -->
  <g transform="translate(500, 300)">
    <!-- Fork -->
    <path d="M 30 0 L 30 80 L 35 80 L 35 0 M 15 0 L 15 35 M 30 0 L 30 35 M 45 0 L 45 35 M 15 35 L 45 35" 
          stroke="#3b82f6" stroke-width="4" fill="none" opacity="0.6"/>
    
    <!-- Knife -->
    <path d="M 150 0 L 150 80 L 155 80 L 155 0 M 150 0 L 140 15 L 160 15 L 150 0" 
          stroke="#3b82f6" stroke-width="4" fill="none" opacity="0.6"/>
    
    <!-- Spoon -->
    <ellipse cx="92" cy="15" rx="15" ry="20" stroke="#3b82f6" stroke-width="4" fill="none" opacity="0.6"/>
    <path d="M 92 35 L 92 80" stroke="#3b82f6" stroke-width="4" fill="none" opacity="0.6"/>
  </g>
  
  <!-- Text -->
  <text x="600" y="520" font-family="Arial, sans-serif" font-size="32" fill="#e2e8f0" text-anchor="middle" opacity="0.8">
    Rezeptbild
  </text>
  <text x="600" y="560" font-family="Arial, sans-serif" font-size="24" fill="#94a3b8" text-anchor="middle" opacity="0.6">
    Wird generiert...
  </text>
</svg>
